<?xml version="1.0" encoding="UTF-8" standalone="no"?>
<!DOCTYPE svg PUBLIC "-//W3C//DTD SVG 20010904//EN"
              "http://www.w3.org/TR/2001/REC-SVG-20010904/DTD/svg10.dtd">

<svg xmlns="http://www.w3.org/2000/svg"
     width="2.77743in" height="2.77743in"
     viewBox="0 0 200 200">

         <title>clock</title>
         <defs>
           <ref id="paramFill" param="color" default="999"/>
         </defs>
  <path id="Sélection"
        fill="url(#paramFill)" stroke="none" stroke-width="1"
        d="M 105.00,15.22
           C 114.97,15.12 127.08,18.37 136.00,22.76
             147.50,28.41 155.12,33.32 163.83,43.00
             193.69,76.17 193.03,125.26 164.56,159.00
             157.20,167.73 146.32,175.36 136.00,180.22
             123.31,186.19 109.89,188.16 96.00,188.00
             87.62,187.90 78.92,186.00 71.00,183.33
             21.34,166.62 -0.79,109.65 21.32,63.00
             34.22,35.79 59.06,20.16 88.00,15.22
             88.00,15.22 105.00,15.22 105.00,15.22 Z
           M 56.00,41.76
           C 16.82,70.43 16.00,126.17 52.00,157.82
             58.26,163.32 66.18,167.72 74.00,170.56
             97.14,178.98 123.20,175.33 143.00,160.62
             149.85,155.53 157.24,149.33 160.00,141.00
             160.00,141.00 112.00,112.40 112.00,112.40
             107.92,109.95 98.27,105.24 96.60,100.96
             95.89,99.13 96.00,96.00 96.00,94.00
             96.00,94.00 96.00,28.00 96.00,28.00
             82.32,28.12 67.00,33.70 56.00,41.76 Z
           M 77.00,57.00
           C 75.47,57.66 73.98,58.60 72.21,58.18
             68.71,57.35 62.56,44.49 61.00,41.00
             61.00,41.00 66.00,38.00 66.00,38.00
             66.00,38.00 77.00,57.00 77.00,57.00 Z
           M 132.00,40.00
           C 132.00,40.00 124.00,57.00 124.00,57.00
             124.00,57.00 127.00,58.00 127.00,58.00
             127.00,58.00 136.00,41.00 136.00,41.00
             136.00,41.00 132.00,40.00 132.00,40.00 Z
           M 56.13,74.21
           C 56.49,75.87 55.58,77.51 55.00,79.00
             55.00,79.00 36.00,69.00 36.00,69.00
             36.00,69.00 39.00,63.00 39.00,63.00
             42.46,64.54 55.38,70.71 56.13,74.21 Z
           M 157.89,66.24
           C 157.89,66.24 143.00,74.00 143.00,74.00
             143.00,74.00 144.00,77.00 144.00,77.00
             144.00,77.00 161.00,68.00 161.00,68.00
             161.00,68.00 157.89,66.24 157.89,66.24 Z
           M 49.00,98.00
           C 49.00,98.00 49.00,104.00 49.00,104.00
             49.00,104.00 28.00,104.00 28.00,104.00
             28.00,104.00 28.00,98.00 28.00,98.00
             28.00,98.00 49.00,98.00 49.00,98.00 Z
           M 150.00,99.00
           C 150.00,99.00 150.00,103.00 150.00,103.00
             150.00,103.00 169.00,103.00 169.00,103.00
             169.00,103.00 169.00,99.00 169.00,99.00
             169.00,99.00 150.00,99.00 150.00,99.00 Z
           M 55.00,124.00
           C 55.00,124.00 57.00,129.00 57.00,129.00
             57.00,129.00 38.00,139.00 38.00,139.00
             38.00,139.00 36.00,133.00 36.00,133.00
             36.00,133.00 55.00,124.00 55.00,124.00 Z
           M 77.00,146.00
           C 75.52,149.32 69.05,162.42 65.79,163.13
             64.13,163.49 62.48,162.58 61.00,162.00
             61.00,162.00 71.00,143.00 71.00,143.00
             71.00,143.00 77.00,146.00 77.00,146.00 Z
           M 134.75,156.00
           C 134.75,156.00 135.85,161.57 135.85,161.57
             135.85,161.57 131.00,164.00 131.00,164.00
             131.00,164.00 122.00,146.00 122.00,146.00
             122.00,146.00 126.00,143.00 126.00,143.00
             126.00,143.00 134.75,156.00 134.75,156.00 Z
           M 102.00,151.00
           C 102.00,151.00 102.00,173.00 102.00,173.00
             102.00,173.00 96.00,173.00 96.00,173.00
             96.00,173.00 96.00,151.00 96.00,151.00
             96.00,151.00 102.00,151.00 102.00,151.00 Z" />
</svg>
