<?xml version="1.0" encoding="UTF-8" standalone="no"?>
<!DOCTYPE svg PUBLIC "-//W3C//DTD SVG 20010904//EN"
              "http://www.w3.org/TR/2001/REC-SVG-20010904/DTD/svg10.dtd">

<svg xmlns="http://www.w3.org/2000/svg"
     width="7.11111in" height="7.11111in"
     viewBox="0 0 512 512">
  <path id="money"
        fill="none" stroke="999" stroke-width="1"
        d="M 50.32,76.00
           C 46.60,68.00 44.95,58.66 53.04,52.65
             61.42,46.42 78.97,48.96 92.00,42.88
             105.37,36.64 114.69,23.54 131.00,24.37
             156.36,25.67 158.75,44.86 186.00,45.00
             191.45,45.03 191.50,44.92 197.00,45.73
             199.39,46.08 201.74,46.27 203.91,47.45
             210.56,51.09 211.19,59.66 208.47,66.00
             204.39,75.52 191.60,85.52 185.00,97.00
             190.63,95.83 196.57,98.46 193.85,105.00
             191.40,110.88 182.89,115.91 180.64,119.28
             179.06,121.65 179.62,123.41 180.00,126.00
             184.13,123.04 191.09,114.41 195.94,115.84
             199.03,116.76 200.28,120.04 199.67,123.00
             198.60,128.11 191.39,133.65 187.00,136.00
             187.00,136.00 214.00,162.09 214.00,162.09
             214.00,162.09 241.91,189.04 241.91,189.04
             241.91,189.04 254.00,202.00 254.00,202.00
             254.00,202.00 286.00,149.00 286.00,149.00
             282.56,147.90 278.96,146.30 277.18,142.91
             275.31,139.34 276.83,135.08 281.02,134.42
             284.45,133.88 289.83,137.47 293.00,139.00
             293.00,139.00 294.00,135.00 294.00,135.00
             289.67,133.50 281.49,130.72 278.43,127.47
             272.68,121.37 278.43,117.23 285.00,117.00
             278.38,109.38 265.69,95.95 260.93,88.00
             258.46,83.87 255.54,76.86 256.35,72.00
             258.73,57.79 274.17,61.88 284.00,58.96
             296.27,55.31 305.53,43.13 319.00,43.18
             330.54,43.21 340.76,53.99 352.00,57.64
             359.60,60.11 375.70,57.17 379.26,66.04
             383.50,76.62 366.55,91.00 361.00,99.00
             362.45,98.59 363.43,98.20 365.00,98.17
             367.03,98.14 369.06,98.66 370.39,100.31
             374.17,105.03 366.97,111.84 363.99,115.00
             362.95,116.11 361.33,117.69 360.57,119.00
             359.20,121.36 359.63,122.51 360.00,125.00
             360.00,125.00 363.00,122.88 363.00,122.88
             363.98,122.37 364.87,122.02 365.98,121.96
             374.40,121.48 370.43,131.96 371.85,135.00
             372.87,137.16 378.07,142.12 380.00,143.96
             401.07,164.12 421.81,183.67 438.26,208.00
             452.46,229.01 463.72,256.62 466.07,282.00
             467.13,293.41 467.20,303.96 463.30,315.00
             456.77,333.51 441.25,348.60 425.00,358.95
             397.44,376.49 366.34,384.87 334.00,387.09
             334.00,387.09 323.00,388.00 323.00,388.00
             321.75,394.67 317.72,401.24 314.19,407.00
             301.78,427.25 281.89,440.83 261.00,451.25
             248.81,457.33 232.29,463.30 219.00,466.35
             161.18,479.62 78.93,479.98 39.92,427.00
             5.61,380.39 19.33,316.81 37.95,267.00
             37.95,267.00 52.75,233.00 52.75,233.00
             52.75,233.00 70.42,199.00 70.42,199.00
             70.42,199.00 87.87,168.00 87.87,168.00
             87.87,168.00 97.00,152.00 97.00,152.00
             91.20,149.69 81.41,146.51 77.31,141.79
             72.94,136.75 77.18,132.01 81.00,131.82
             82.91,131.73 96.84,138.66 100.00,140.00
             99.17,137.75 98.63,135.42 96.69,133.84
             95.46,132.84 93.46,132.17 92.00,131.55
             86.90,129.38 72.75,122.73 81.28,115.72
             82.56,114.67 83.54,114.51 85.00,114.00
             74.11,103.11 56.66,89.63 50.32,76.00 Z
           M 165.00,53.55
           C 150.00,47.49 147.78,37.58 130.00,38.01
             118.85,38.29 110.31,46.39 101.00,51.56
             94.13,55.37 83.81,57.87 76.00,58.85
             71.87,59.36 61.34,59.77 60.64,65.11
             60.19,68.56 64.00,73.41 66.02,76.00
             66.02,76.00 84.83,97.00 84.83,97.00
             89.43,102.09 94.05,107.45 98.08,113.00
             100.00,115.65 103.19,121.41 105.52,123.10
             108.95,125.58 117.77,125.99 122.00,126.00
             122.00,126.00 130.00,126.00 130.00,126.00
             138.30,125.90 157.76,120.93 163.69,115.37
             166.44,112.78 166.78,107.65 168.09,104.00
             170.13,98.32 173.92,91.90 177.43,87.00
             177.43,87.00 196.83,63.00 196.83,63.00
             197.76,61.13 197.77,59.98 198.00,58.00
             185.30,55.73 178.07,58.83 165.00,53.55 Z
           M 343.00,67.48
           C 335.51,64.09 329.44,56.32 321.00,56.06
             312.22,55.78 306.53,62.41 299.00,66.02
             299.00,66.02 269.00,76.00 269.00,76.00
             273.34,84.85 284.24,95.16 291.00,103.00
             294.87,107.49 297.71,110.87 300.79,116.00
             301.92,117.87 304.36,122.97 305.69,124.10
             308.11,126.12 313.03,126.06 316.00,125.71
             322.60,124.95 336.73,122.07 341.71,117.87
             345.91,114.32 341.97,111.70 346.46,101.00
             351.36,89.33 361.20,82.53 366.00,72.00
             358.08,69.75 354.03,72.48 343.00,67.48 Z
           M 184.00,97.00
           C 184.00,97.00 185.00,98.00 185.00,98.00
             185.00,98.00 185.00,97.00 185.00,97.00
             185.00,97.00 184.00,97.00 184.00,97.00 Z
           M 183.00,98.00
           C 183.00,98.00 184.00,99.00 184.00,99.00
             184.00,99.00 184.00,98.00 184.00,98.00
             184.00,98.00 183.00,98.00 183.00,98.00 Z
           M 360.00,99.00
           C 360.00,99.00 361.00,100.00 361.00,100.00
             361.00,100.00 361.00,99.00 361.00,99.00
             361.00,99.00 360.00,99.00 360.00,99.00 Z
           M 358.00,102.00
           C 358.00,102.00 359.00,103.00 359.00,103.00
             359.00,103.00 359.00,102.00 359.00,102.00
             359.00,102.00 358.00,102.00 358.00,102.00 Z
           M 85.00,114.00
           C 85.00,114.00 86.00,115.00 86.00,115.00
             86.00,115.00 86.00,114.00 86.00,114.00
             86.00,114.00 85.00,114.00 85.00,114.00 Z
           M 285.00,117.00
           C 285.00,117.00 286.00,118.00 286.00,118.00
             286.00,118.00 286.00,117.00 286.00,117.00
             286.00,117.00 285.00,117.00 285.00,117.00 Z
           M 129.00,138.00
           C 129.00,138.00 110.00,137.00 110.00,137.00
             110.00,137.00 110.00,143.00 110.00,143.00
             126.38,145.16 140.18,144.94 156.00,139.67
             159.61,138.46 168.23,136.15 169.03,131.90
             169.34,130.23 168.52,128.53 168.00,127.00
             155.12,132.55 143.43,137.83 129.00,138.00 Z
           M 340.00,131.57
           C 330.51,135.62 322.30,137.25 312.00,137.30
             306.40,137.32 305.55,137.23 304.00,143.00
             321.91,148.48 336.45,142.31 352.00,134.00
             352.00,134.00 349.00,128.00 349.00,128.00
             345.21,129.08 343.49,130.08 340.00,131.57 Z
           M 162.00,149.95
           C 154.24,152.79 142.21,155.90 134.00,155.98
             134.00,155.98 117.00,155.98 117.00,155.98
             114.43,155.74 110.65,154.63 108.41,155.98
             106.89,157.00 100.16,170.40 98.78,173.00
             98.78,173.00 76.14,214.00 76.14,214.00
             54.67,252.48 35.15,299.73 31.91,344.00
             31.91,344.00 31.00,354.00 31.00,354.00
             31.00,354.00 31.00,358.00 31.00,358.00
             31.22,376.91 36.21,399.00 46.55,415.00
             67.26,447.05 113.31,461.94 150.00,462.00
             150.00,462.00 168.00,462.00 168.00,462.00
             168.00,462.00 192.00,459.42 192.00,459.42
             223.99,454.68 258.59,443.74 284.00,423.20
             293.15,415.80 299.07,408.99 305.19,399.00
             306.55,396.78 310.50,391.17 308.87,388.60
             307.69,386.73 301.29,386.77 299.00,386.41
             290.55,385.09 282.11,383.21 274.00,380.48
             249.28,372.17 228.64,353.98 222.50,328.00
             217.24,305.74 222.99,273.17 231.20,252.00
             231.20,252.00 242.31,225.00 242.31,225.00
             243.44,222.54 247.13,216.32 246.91,214.00
             246.68,211.64 244.53,209.63 242.98,208.00
             242.98,208.00 231.00,196.00 231.00,196.00
             231.00,196.00 196.00,163.00 196.00,163.00
             191.81,158.81 181.14,146.64 177.00,144.44
             172.56,144.47 166.51,148.29 162.00,149.95 Z
           M 248.14,240.00
           C 241.47,255.08 233.30,276.54 232.09,293.00
             231.20,305.07 230.45,312.83 233.47,325.00
             235.01,331.15 237.21,337.53 240.45,343.00
             261.53,378.56 311.85,379.30 348.00,373.73
             348.00,373.73 369.00,369.23 369.00,369.23
             377.57,367.15 385.83,364.09 394.00,360.80
             418.60,350.88 444.82,334.97 452.79,308.00
             454.99,300.55 455.09,293.65 455.00,286.00
             454.80,269.64 447.01,248.40 439.45,234.00
             427.00,210.28 409.88,189.88 391.00,171.00
             391.00,171.00 370.00,151.00 370.00,151.00
             367.63,148.64 363.46,143.76 360.00,143.59
             357.20,143.45 348.43,149.33 345.00,150.83
             337.22,154.23 323.47,157.29 315.00,156.96
             315.00,156.96 297.00,154.00 297.00,154.00
             280.01,182.32 261.54,209.68 248.14,240.00 Z
           M 283.25,287.03
           C 283.55,280.76 292.07,281.55 294.40,275.90
             294.77,275.01 295.89,264.13 298.09,258.00
             303.81,242.05 318.16,227.14 334.00,221.06
             340.70,218.49 347.79,216.45 355.00,216.09
             358.91,215.90 362.70,216.56 363.67,221.02
             364.24,223.63 363.42,226.28 360.85,227.40
             360.85,227.40 353.00,228.44 353.00,228.44
             348.72,229.12 342.99,230.78 339.00,232.46
             322.87,239.28 309.46,255.57 307.00,273.00
             307.00,273.00 348.00,256.02 348.00,256.02
             351.88,254.31 359.85,250.80 362.26,256.02
             365.42,263.33 356.70,265.65 352.00,267.42
             352.00,267.42 308.00,285.00 308.00,285.00
             308.00,285.00 310.00,293.00 310.00,293.00
             310.00,293.00 354.00,276.40 354.00,276.40
             357.88,274.86 366.88,270.29 370.48,273.60
             376.31,278.96 368.32,284.07 364.00,285.80
             364.00,285.80 318.00,303.00 318.00,303.00
             332.35,316.65 350.16,321.04 369.00,314.30
             376.89,311.48 379.56,308.72 386.00,303.97
             388.63,302.03 391.57,300.16 394.85,302.03
             399.50,304.67 397.75,309.73 394.85,312.91
             389.48,318.80 378.66,324.29 371.00,326.56
             356.24,330.93 336.71,329.87 323.00,322.60
             315.59,318.68 308.93,311.67 307.00,310.52
             305.51,309.64 304.72,309.42 303.00,309.71
             299.25,310.10 292.94,315.51 288.60,309.71
             287.57,308.41 287.13,306.76 287.66,305.10
             288.95,300.98 296.21,298.71 300.00,298.00
             300.00,298.00 297.00,291.00 297.00,291.00
             292.49,292.69 282.86,295.25 283.25,287.03 Z
           M 146.25,341.00
           C 145.67,337.52 143.78,324.62 142.07,322.43
             141.41,321.59 140.82,321.17 139.86,320.74
             137.09,319.49 133.41,320.77 123.00,316.38
             108.75,310.38 101.83,296.91 102.00,282.00
             102.15,269.00 108.21,260.53 119.00,253.55
             119.00,253.55 130.40,247.30 130.40,247.30
             134.07,243.38 129.30,236.44 132.02,232.37
             134.09,229.19 139.05,229.87 141.27,232.37
             143.61,235.13 143.92,241.52 144.00,245.00
             154.19,245.01 161.96,246.27 171.00,251.31
             174.68,253.37 178.60,256.13 177.53,260.98
             176.81,264.21 174.30,266.11 171.00,265.44
             171.00,265.44 161.00,260.47 161.00,260.47
             155.56,258.25 151.74,258.02 146.00,258.00
             146.00,258.00 150.73,293.00 150.73,293.00
             151.24,296.44 151.91,305.24 153.85,307.69
             156.02,310.41 162.46,310.29 166.00,311.00
             173.95,312.61 181.66,315.07 188.00,320.33
             213.75,341.66 201.84,385.06 169.00,391.00
             169.33,398.08 170.67,399.20 171.24,404.00
             171.80,408.68 169.31,412.85 164.05,411.67
             158.63,410.44 157.40,398.72 157.00,394.00
             142.61,394.00 129.44,392.36 119.18,380.99
             115.95,377.40 106.29,364.67 115.06,361.83
             122.31,359.48 124.47,369.62 130.09,374.67
             137.58,381.40 144.55,382.00 154.00,382.00
             154.00,382.00 146.25,341.00 146.25,341.00 Z
           M 122.04,265.21
           C 112.86,273.46 110.99,289.41 119.34,298.91
             124.98,305.32 132.98,307.49 141.00,309.00
             141.00,309.00 134.00,259.00 134.00,259.00
             129.51,260.57 125.67,261.95 122.04,265.21 Z
           M 499.00,279.00
           C 499.00,279.00 498.00,280.00 498.00,280.00
             498.00,280.00 498.00,279.00 498.00,279.00
             498.00,279.00 499.00,279.00 499.00,279.00 Z
           M 498.00,302.00
           C 498.00,302.00 497.00,303.00 497.00,303.00
             497.00,303.00 497.00,302.00 497.00,302.00
             497.00,302.00 498.00,302.00 498.00,302.00 Z
           M 187.39,364.00
           C 195.00,351.28 188.78,335.23 177.00,327.55
             170.02,323.00 163.12,322.02 155.00,322.00
             155.00,322.00 166.00,380.00 166.00,380.00
             174.85,376.40 182.29,372.52 187.39,364.00 Z
           M 486.00,336.00
           C 486.00,336.00 485.00,337.00 485.00,337.00
             485.00,337.00 485.00,336.00 485.00,336.00
             485.00,336.00 486.00,336.00 486.00,336.00 Z" />
</svg>
